<svg width="50" height="50" viewBox="0 0 50 50" fill="none" xmlns="http://www.w3.org/2000/svg">
<path fill-rule="evenodd" clip-rule="evenodd" d="M50 25C50 38.8071 38.8071 50 25 50C11.1929 50 0 38.8071 0 25C0 11.1929 11.1929 0 25 0C38.8071 0 50 11.1929 50 25ZM22.6777 31.7127L28.7122 25.6931C28.904 25.5017 29 25.2508 29 24.9999C29 24.7491 28.9042 24.4984 28.7123 24.3069L22.6779 18.2872C22.294 17.9043 21.6716 17.9043 21.2879 18.2872C20.9042 18.67 20.9042 19.2907 21.2879 19.6737L26.6274 24.9999L21.2878 30.3263C20.9041 30.7091 20.9041 31.3299 21.2878 31.7127C21.6715 32.0958 22.2938 32.0958 22.6777 31.7127Z" fill="white"/>
</svg>
