<svg width="50" height="50" viewBox="0 0 50 50" fill="none" xmlns="http://www.w3.org/2000/svg">
<path d="M14.575 12.8156C14.2689 13.2364 14.0776 13.7337 14.0776 14.2693V35.5776C14.0776 36.0749 14.2307 36.534 14.4984 36.9548L26.0899 24.8661L14.575 12.8156Z" fill="white"/>
<path d="M27.161 23.7567L30.9101 19.8164L17.6737 12.1653C17.0998 11.821 16.4495 11.7444 15.8374 11.9357L27.161 23.7567Z" fill="white"/>
<path d="M27.1606 25.9756L15.7222 37.8731C15.9517 37.9496 16.2195 37.9878 16.4873 37.9878C16.9081 37.9878 17.3289 37.8731 17.6732 37.6435L30.9861 29.9542L27.1606 25.9756Z" fill="white"/>
<path d="M36.1511 22.8386L32.2873 20.6198L28.2322 24.8661L32.402 29.189L36.1893 27.0084C36.9544 26.5876 37.4135 25.7842 37.4135 24.9044C37.337 24.0627 36.9162 23.2976 36.1511 22.8386Z" fill="white"/>
<rect x="0.5" y="0.5" width="49" height="49" rx="5.5" stroke="white"/>
</svg>
